<svg version="1.1" id="Layer_1" xmlns="http://www.w3.org/2000/svg" xmlns:xlink="http://www.w3.org/1999/xlink" x="0px" y="0px"
	 width="100%" viewBox="0 0 256 256" enable-background="new 0 0 256 256" xml:space="preserve">
<path fill="#000000" opacity="1.000000" stroke="none" 
	d="
M202.000000,1.000000 
	C220.304443,1.000000 238.608887,1.000000 257.000000,1.000000 
	C257.000000,75.020874 257.000000,149.041779 256.616699,223.561890 
	C254.411469,224.949387 252.672867,226.149658 250.750778,226.663315 
	C246.272034,227.860214 241.887360,230.872604 237.008713,227.526947 
	C232.983459,223.590012 228.983459,220.002335 224.927719,216.478790 
	C224.501633,216.108612 223.746857,216.116760 223.081482,215.581360 
	C219.709656,211.103317 216.400925,206.993271 212.920471,202.578445 
	C209.245087,197.077911 205.649551,191.941177 202.263046,186.670151 
	C198.736481,181.181137 195.411697,175.562485 192.327713,169.874481 
	C188.571106,163.388840 184.520233,157.006256 180.352585,150.700867 
	C179.872162,149.973999 178.741638,149.676849 177.602097,149.039581 
	C174.865326,146.931030 172.438965,144.963348 170.095505,142.688004 
	C170.828979,141.934235 171.479584,141.488129 172.528229,141.036041 
	C178.000046,139.038330 183.073837,137.046600 188.512665,135.033508 
	C197.849075,130.842056 204.388809,123.979553 210.060852,115.669792 
	C212.766510,108.552490 215.335144,101.769997 217.975403,94.558426 
	C218.048431,88.653259 218.482788,83.135498 217.960587,77.709793 
	C216.894943,66.637604 211.557693,57.983681 201.598145,51.991829 
	C199.542557,51.112991 197.843719,50.339291 196.104828,49.669537 
	C192.076675,48.118027 188.029160,46.616791 183.912003,44.713493 
	C180.864517,40.238586 176.681686,42.516735 172.661285,42.194450 
	C171.566666,41.806244 170.791107,41.489243 169.676437,41.104706 
	C168.878357,41.067715 168.419373,41.098263 167.505997,41.047737 
	C163.035629,40.977654 159.019638,40.988640 154.993469,40.559181 
	C149.054184,39.930153 143.125122,39.738449 137.194687,39.613213 
	C137.151154,39.612297 137.088425,40.521946 136.565033,41.043140 
	C128.152023,41.079857 120.208633,41.079857 112.250443,41.079857 
	C112.250443,43.222603 112.250443,44.948864 112.250443,46.359394 
	C117.977234,46.985920 123.373451,47.576275 129.223709,48.216305 
	C128.554474,49.488953 128.193787,50.174843 127.532211,51.048103 
	C126.299545,52.867214 125.459427,54.560242 124.417610,56.118408 
	C121.971306,59.777145 119.428543,63.371391 116.615692,67.128098 
	C112.179611,72.500824 108.052650,77.737190 103.612976,83.092621 
	C96.277664,90.259079 89.249443,97.300873 82.236328,104.357689 
	C80.408859,106.196533 78.628517,108.082230 76.533203,110.096741 
	C72.122452,114.129936 68.005035,118.012794 63.581112,122.036179 
	C61.200203,124.517326 59.125797,126.857948 56.684944,129.116791 
	C55.285618,129.528839 54.252739,130.022675 52.836510,130.699799 
	C52.836510,117.126839 52.836510,104.076401 52.923416,90.563843 
	C52.968887,84.752075 52.927448,79.402428 52.967239,73.688095 
	C53.078197,72.577026 53.107922,71.830643 53.482506,70.825554 
	C53.510250,65.360382 53.193134,60.153908 52.935143,54.564476 
	C53.574322,48.115887 58.303459,46.989979 63.370079,45.868378 
	C64.826797,45.888393 65.889824,45.837177 67.274307,45.933502 
	C70.192513,46.972290 71.503365,45.753448 70.878387,43.363453 
	C70.550392,42.109146 68.798119,40.355698 67.666229,40.338619 
	C63.444389,40.274910 59.213108,40.836437 54.521942,41.096233 
	C40.895363,41.025063 27.732109,40.997807 14.569248,41.057594 
	C13.417900,41.062824 12.269148,41.639671 10.959665,42.291840 
	C9.775431,45.839096 10.098475,47.862476 14.474642,46.547913 
	C15.157970,46.419930 15.598030,46.285610 16.308712,46.260658 
	C16.968454,46.374264 17.357574,46.378494 17.775764,46.665024 
	C18.565628,46.918156 19.326418,46.888992 20.415943,47.030060 
	C27.192951,49.340714 29.759708,52.346378 30.074152,58.482704 
	C30.252588,61.964870 30.154289,65.461220 30.110985,69.418320 
	C30.031181,111.140572 30.018536,152.395691 30.023678,193.650803 
	C30.023823,194.802933 30.214331,195.955017 30.214176,197.539719 
	C30.059208,200.643661 30.006140,203.315033 29.659412,206.083298 
	C29.239626,206.772476 29.113497,207.364761 28.582611,207.989914 
	C27.836491,209.675781 27.495127,211.328751 27.045435,213.248169 
	C26.608541,213.964737 26.279976,214.414841 25.636646,215.021515 
	C24.855757,216.449310 24.389633,217.720535 23.715927,218.968246 
	C23.508343,218.944733 23.096455,218.874573 22.883671,218.530746 
	C18.554653,216.148788 16.620935,221.273254 12.695545,221.119263 
	C11.906858,222.759491 11.498789,224.391022 11.143046,226.366425 
	C11.670316,226.513306 12.145257,226.316284 12.788324,226.370819 
	C13.451581,226.440094 13.946712,226.257843 14.701792,226.462189 
	C19.493847,226.591599 24.025953,226.334412 28.711224,226.424698 
	C30.182178,226.760803 31.499966,226.749451 33.182098,226.745239 
	C34.501186,226.724228 35.455933,226.696106 36.733948,226.811401 
	C42.748283,226.856720 48.439350,226.758621 54.584259,226.703766 
	C59.330265,226.731628 63.622440,226.716232 68.195892,226.799683 
	C68.551727,226.570389 68.626289,226.242249 68.780884,225.524048 
	C68.817192,220.471085 64.686615,221.403244 62.406265,221.218765 
	C58.010700,220.863144 55.466499,218.832092 53.857273,214.695801 
	C53.593636,208.113449 52.802238,201.912140 53.052467,195.753159 
	C53.739193,178.850357 50.716351,161.790268 55.415085,144.889832 
	C58.744549,139.867523 60.932369,134.264832 67.103714,132.360504 
	C68.787361,134.475601 70.324356,136.291321 71.880447,138.482056 
	C72.789337,140.925797 73.461914,143.124313 74.606918,145.040512 
	C79.312378,152.915222 84.081505,160.755066 89.011391,168.490372 
	C90.322205,170.547119 92.288475,172.186127 93.977692,174.387909 
	C102.334465,187.457367 110.323357,200.400940 119.130035,212.761887 
	C124.360535,220.103348 124.990044,219.727859 130.367645,220.964935 
	C132.482971,221.681503 134.229279,222.407135 135.979675,223.519257 
	C138.973694,224.880310 141.963654,225.854904 145.418549,226.913315 
	C153.794556,226.987228 161.714417,227.167160 169.608963,226.801178 
	C171.120041,226.731110 172.531448,224.510818 173.988846,223.282547 
	C172.601974,222.523468 171.281876,221.333054 169.812714,221.105682 
	C167.568085,220.758316 165.220566,221.075974 162.510422,221.059570 
	C160.746429,220.934982 159.388748,220.862122 157.904541,220.452698 
	C150.787827,215.729141 145.679382,209.518570 140.898666,202.532990 
	C138.114258,197.991318 135.560806,193.709000 132.801208,189.563934 
	C131.443741,187.524948 129.704575,185.740112 128.057953,183.495621 
	C126.260201,180.463211 124.542648,177.775436 122.910118,174.724121 
	C120.405327,170.157883 117.858757,165.927124 115.171722,161.787537 
	C114.830956,161.262573 113.754494,161.215164 113.000153,160.584503 
	C108.889824,154.318039 106.388382,147.194748 99.890953,143.084167 
	C99.895470,143.030594 99.828987,143.115082 99.893814,142.753021 
	C98.020844,139.582809 96.083038,136.774658 94.088531,133.608856 
	C91.076340,129.148788 88.120857,125.046394 85.018082,120.630272 
	C85.071609,119.276428 85.045952,118.112617 85.529648,117.226997 
	C86.158432,116.075745 87.192032,115.145607 88.425850,114.069763 
	C93.805656,110.306610 98.811020,106.594002 103.883591,102.528381 
	C106.602669,100.297958 109.580742,98.746841 111.845680,96.482422 
	C118.847336,89.482422 125.741165,82.357628 132.350494,74.988564 
	C136.245972,70.645317 139.523026,65.747391 143.442444,61.059227 
	C146.573639,56.692036 149.340622,52.364552 152.533890,48.026131 
	C159.266708,49.355522 165.573257,50.695854 172.054688,52.362133 
	C174.821030,54.117710 177.571411,55.325390 179.961197,57.036617 
	C182.583908,58.914639 184.874283,61.256790 187.274780,63.672668 
	C187.260574,64.132919 187.281021,64.317215 187.197266,64.792633 
	C188.998703,69.751556 190.904343,74.419350 192.879974,79.505562 
	C193.020264,86.318420 193.090561,92.712852 193.093048,99.504608 
	C190.808716,110.136238 186.953247,119.523270 177.978455,125.692047 
	C173.472076,128.789490 168.618927,131.532959 163.600998,133.687515 
	C159.653168,135.382599 155.212463,135.929794 150.675919,137.045258 
	C150.188034,137.228485 150.014908,137.353302 149.476486,137.456100 
	C143.082672,137.766861 137.054184,138.099655 130.959854,138.043427 
	C129.959915,138.406219 128.178741,139.264755 128.257401,139.888962 
	C128.458649,141.486084 129.496918,144.297485 130.184097,144.292679 
	C133.793045,144.267395 137.396957,143.519211 141.250702,143.017487 
	C141.498795,143.012848 141.987900,143.096970 142.157440,143.404205 
	C147.908432,146.032974 152.848892,149.074341 156.031326,154.535904 
	C157.401443,156.887238 159.420868,158.860245 161.065369,161.365234 
	C163.123215,165.463760 165.190857,169.245834 167.464569,172.899658 
	C167.865692,173.544235 169.127914,173.652969 169.991196,174.006271 
	C169.989914,174.003387 169.979507,174.015854 169.877228,174.349915 
	C169.526291,175.087753 168.967300,175.713425 169.074234,175.862991 
	C171.997681,179.951691 174.989105,183.991837 178.009674,188.404892 
	C180.797150,193.138321 183.544113,197.506927 186.153549,202.232147 
	C187.996017,205.765610 189.976013,208.942459 192.103653,212.429138 
	C195.273392,216.412201 197.848480,220.616058 201.426010,223.630051 
	C206.367996,227.793579 210.727722,233.200272 218.020020,234.432190 
	C221.424255,235.531113 224.640732,236.280701 228.086304,237.409943 
	C233.421616,237.871231 238.529541,238.040955 243.632233,237.941711 
	C244.418152,237.926437 245.180008,236.674500 246.359924,235.976151 
	C250.177902,234.971878 253.588959,233.985947 257.000000,233.000000 
	C257.000000,240.995224 257.000000,248.990433 257.000000,256.989258 
	C171.722473,256.992828 86.444939,256.992828 1.083705,256.992828 
	C1.083705,171.773560 1.083705,86.547020 1.083705,1.000000 
	C66.020546,1.000000 131.041611,1.000000 196.570862,1.352600 
	C198.228928,2.529473 198.539185,5.824074 201.022888,2.737438 
	C201.413940,1.975040 201.706970,1.487520 202.000000,1.000000 
z"/>
<path fill="#FDFCFC" opacity="1.000000" stroke="none" 
	d="
M186.291092,201.875549 
	C183.544113,197.506927 180.797150,193.138321 178.088089,188.020874 
	C175.410492,182.853302 172.695007,178.434586 169.979507,174.015854 
	C169.979507,174.015854 169.989914,174.003387 170.035767,173.630829 
	C167.793640,169.175995 165.505646,165.093719 163.145691,160.658829 
	C160.244843,156.246872 157.750885,151.890701 154.491440,148.212967 
	C151.330978,144.646942 147.334229,141.902710 141.987900,143.096970 
	C141.987900,143.096970 141.498795,143.012848 141.067886,142.672729 
	C137.281158,141.786087 133.925354,141.239563 130.460587,140.675308 
	C130.655151,139.903107 130.840408,139.167786 131.025681,138.432449 
	C137.054184,138.099655 143.082672,137.766861 149.678253,137.669769 
	C150.493774,137.599258 150.742233,137.293060 150.990692,136.986877 
	C155.212463,135.929794 159.653168,135.382599 163.600998,133.687515 
	C168.618927,131.532959 173.472076,128.789490 177.978455,125.692047 
	C186.953247,119.523270 190.808716,110.136238 193.493317,99.448059 
	C197.141281,92.476593 196.242096,85.747543 195.005096,78.602676 
	C193.322479,73.733795 191.688095,69.239601 189.847412,64.831566 
	C189.682281,64.436119 188.181793,64.598297 187.301468,64.501503 
	C187.281021,64.317215 187.260574,64.132919 187.579376,63.402203 
	C186.014557,57.019878 179.953873,52.216618 174.137299,51.575169 
	C173.758163,50.670063 173.478409,49.758987 173.042648,49.677013 
	C166.104553,48.371773 159.156479,47.106380 152.177399,46.052326 
	C151.483627,45.947548 150.572952,47.278908 149.495880,48.136841 
	C147.178604,52.586277 145.128403,56.842602 143.078217,61.098927 
	C139.523026,65.747391 136.245972,70.645317 132.350494,74.988564 
	C125.741165,82.357628 118.847336,89.482422 111.845680,96.482422 
	C109.580742,98.746841 106.602669,100.297958 103.604996,102.394295 
	C98.136070,106.003151 93.012947,109.393074 87.539719,112.851936 
	C85.508072,113.924072 83.825638,114.925774 82.145187,115.930786 
	C78.867661,117.890938 79.448654,119.620415 82.554688,121.549965 
	C85.566757,125.648476 88.486931,129.399460 91.514542,133.500763 
	C94.357643,136.939087 97.093315,140.027084 99.828987,143.115082 
	C99.828987,143.115082 99.895470,143.030594 99.778809,143.440826 
	C104.057091,150.074417 108.452034,156.297760 112.982742,162.805359 
	C116.354042,167.088959 119.589577,171.088303 122.825104,175.087662 
	C124.542648,177.775436 126.260201,180.463211 128.097198,183.879913 
	C132.451767,191.589737 136.686874,198.570618 140.872452,205.885834 
	C143.451920,209.797775 145.634460,213.868454 148.859100,216.788223 
	C151.202637,218.910217 154.924011,219.510483 158.031052,220.789246 
	C159.388748,220.862122 160.746429,220.934982 162.611618,221.436493 
	C165.256256,222.477753 167.393387,223.090378 169.530533,223.703003 
	C169.518738,223.875687 169.506943,224.048370 169.495148,224.221054 
	C161.358368,224.221054 153.221603,224.221054 144.688538,224.111725 
	C141.520020,223.712540 138.747818,223.422653 135.975601,223.132782 
	C134.229279,222.407135 132.482971,221.681503 130.415848,220.608917 
	C123.854691,213.117538 117.153709,206.316483 111.500862,198.734039 
	C105.606857,190.828140 100.723297,182.168930 95.294891,173.494537 
	C89.890137,164.613785 84.691635,156.010849 79.235695,147.574417 
	C77.071770,144.228363 74.336494,141.251801 71.861351,138.107025 
	C70.324356,136.291321 68.787361,134.475601 67.114662,131.979462 
	C65.392670,131.266922 62.963551,130.561783 62.361565,131.315659 
	C59.252186,135.209549 56.610607,139.477005 53.494900,143.828613 
	C52.196724,147.153931 50.359566,150.265228 50.361172,153.375549 
	C50.371094,172.603867 50.740780,191.833221 51.195740,211.057388 
	C51.228069,212.423462 52.896873,213.750809 53.804745,215.096161 
	C55.466499,218.832092 58.010700,220.863144 62.406265,221.218765 
	C64.686615,221.403244 68.817192,220.471085 68.562378,225.543396 
	C67.967003,226.117966 67.850594,226.367325 67.914612,226.700851 
	C63.622440,226.716232 59.330265,226.731628 54.492374,226.306427 
	C48.981037,225.587769 44.017353,225.225052 39.047974,225.111725 
	C38.181156,225.091949 37.290386,226.122513 36.410675,226.667969 
	C35.455933,226.696106 34.501186,226.724228 33.137325,226.201248 
	C27.357189,225.421936 21.984842,225.002502 16.615662,225.039734 
	C13.563126,225.060913 12.274990,224.213989 13.076161,221.110535 
	C16.620935,221.273254 18.554653,216.148788 22.816128,218.780212 
	C22.926947,219.542374 22.892527,219.711212 22.615982,219.932907 
	C22.033325,220.046295 21.755270,220.211777 21.246193,220.586136 
	C20.424442,220.929382 19.896189,221.168686 19.367935,221.408005 
	C19.430367,221.624710 19.492798,221.841431 19.555229,222.058136 
	C20.452467,221.801788 21.349705,221.545441 22.542435,221.266785 
	C23.224232,221.160934 23.610535,221.077393 24.326080,220.965454 
	C25.428988,220.222855 26.202654,219.508652 26.976318,218.794464 
	C26.773851,218.551483 26.571384,218.308517 26.368917,218.065536 
	C25.553782,218.374283 24.738646,218.683014 23.923508,218.991760 
	C24.389633,217.720535 24.855757,216.449310 25.831146,215.287094 
	C28.179358,214.109177 30.710777,213.177795 31.617285,211.412155 
	C32.236420,210.206253 30.587793,207.836044 29.953070,205.986389 
	C30.006140,203.315033 30.059208,200.643661 30.578430,197.484055 
	C31.335516,195.636353 31.626450,194.276901 31.965881,192.457443 
	C32.022400,152.808792 32.041988,113.620140 31.995083,74.431572 
	C31.993254,72.903976 31.354544,71.377144 30.944931,69.643730 
	C30.713060,69.177979 30.480844,69.015869 30.180622,68.951180 
	C30.154289,65.461220 30.252588,61.964870 30.074152,58.482704 
	C29.759708,52.346378 27.192951,49.340714 20.229794,46.736641 
	C19.058838,46.309563 18.402765,46.346142 17.746693,46.382721 
	C17.357574,46.378494 16.968454,46.374264 16.298920,45.897125 
	C16.031590,44.697552 16.044676,43.970882 16.519356,43.188396 
	C31.294291,43.054008 45.607632,42.975437 60.355457,42.966835 
	C62.826107,43.060158 64.862274,43.083508 66.681694,43.348457 
	C65.302094,44.325756 64.139236,45.061447 62.976379,45.797142 
	C58.303459,46.989979 53.574322,48.115887 52.560131,54.702511 
	C51.763733,59.160362 51.401466,63.097225 50.987434,67.498268 
	C50.675793,87.858765 50.387939,107.754799 50.189686,127.651733 
	C50.163418,130.287933 50.535217,132.936920 50.906342,135.553925 
	C50.941330,135.800613 52.300556,135.859497 53.387604,135.938248 
	C54.837292,133.646790 55.944340,131.422684 57.051392,129.198563 
	C59.125797,126.857948 61.200203,124.517326 63.952785,122.072296 
	C69.417778,117.977959 74.204590,113.988022 79.302078,109.862869 
	C85.318901,104.454926 91.200256,99.355911 96.664673,93.843575 
	C99.880615,90.599442 102.434601,86.699127 105.595856,82.990814 
	C109.692108,78.306000 113.508797,73.748169 117.210205,69.098557 
	C117.515503,68.715050 117.038391,67.708687 116.924812,66.991730 
	C119.428543,63.371391 121.971306,59.777145 124.417610,56.118408 
	C125.459427,54.560242 126.299545,52.867214 127.876236,50.961700 
	C129.622299,49.833771 130.723465,48.979618 133.061981,47.165661 
	C127.510460,45.830997 123.589371,44.888317 119.668289,43.945633 
	C119.744133,43.648430 119.819977,43.351223 119.895821,43.054016 
	C134.921112,43.054016 149.946411,43.054016 165.286835,43.201626 
	C166.735489,43.544205 167.869034,43.739170 169.395752,44.015221 
	C170.856918,44.076862 171.924927,44.057419 173.392548,44.067944 
	C177.191269,44.430332 180.590378,44.762753 183.989487,45.095177 
	C188.029160,46.616791 192.076675,48.118027 196.104828,49.669537 
	C197.843719,50.339291 199.542557,51.112991 201.637787,52.349281 
	C202.907547,54.166615 203.710770,55.546001 204.705841,56.769321 
	C209.170212,62.257679 213.615173,67.829788 214.245270,75.194740 
	C214.809067,81.784943 214.853912,88.419548 214.957977,95.383469 
	C212.347977,102.450729 209.907715,109.169075 207.170395,116.000557 
	C201.637558,124.086761 194.377258,129.693359 185.639542,134.094604 
	C182.096039,135.193497 178.821136,135.979919 175.732758,137.227966 
	C173.370804,138.182465 171.244736,139.720718 168.652603,141.022827 
	C166.983673,141.046341 165.675888,141.046341 164.368088,141.046341 
	C164.327805,141.439255 164.287521,141.832169 164.247238,142.225082 
	C166.169037,142.481949 168.090820,142.738815 170.012619,142.995667 
	C172.438965,144.963348 174.865326,146.931030 177.609512,149.396317 
	C180.840408,154.383102 183.675766,158.925491 186.698135,163.339828 
	C188.297012,165.675064 190.221298,167.787506 191.998688,170.000534 
	C195.411697,175.562485 198.736481,181.181137 202.263046,186.670151 
	C205.649551,191.941177 209.245087,197.077911 212.935364,202.948883 
	C215.961044,207.793427 218.800110,211.962753 221.735626,216.468964 
	C225.195206,220.055786 228.420700,223.470200 231.997711,226.464706 
	C233.216202,227.484772 235.319138,227.448334 237.017944,227.894653 
	C241.887360,230.872604 246.272034,227.860214 250.750778,226.663315 
	C252.672867,226.149658 254.411469,224.949387 256.616699,224.030548 
	C257.000000,225.714355 257.000000,227.428711 256.622986,229.494431 
	C244.680649,235.886612 232.619659,235.973648 220.024124,232.589539 
	C210.492752,229.440964 203.890167,223.036880 197.864899,215.825104 
	C196.208145,213.842102 194.281784,212.084366 192.520325,209.903122 
	C190.471375,207.013840 188.381226,204.444687 186.291092,201.875549 
z"/>
<path fill="#A7A39F" opacity="1.000000" stroke="none" 
	d="
M220.290466,232.839447 
	C232.619659,235.973648 244.680649,235.886612 256.622986,229.922897 
	C257.000000,230.750000 257.000000,231.500000 257.000000,232.625000 
	C253.588959,233.985947 250.177902,234.971878 245.932617,236.002014 
	C239.351318,236.374252 233.604248,236.702286 227.857193,237.030304 
	C224.640732,236.280701 221.424255,235.531113 218.336060,234.296997 
	C219.073044,233.488129 219.681763,233.163788 220.290466,232.839447 
z"/>
<path fill="#938F8A" opacity="1.000000" stroke="none" 
	d="
M200.924866,3.012318 
	C198.539185,5.824074 198.228928,2.529473 197.039520,1.352600 
	C197.444443,1.000000 197.888901,1.000000 198.696304,1.317647 
	C199.681137,2.094303 200.302994,2.553311 200.924866,3.012318 
z"/>
<path fill="#857F7A" opacity="1.000000" stroke="none" 
	d="
M201.022888,2.737439 
	C200.302994,2.553311 199.681137,2.094303 199.029633,1.317647 
	C199.750000,1.000000 200.500000,1.000000 201.625000,1.000000 
	C201.706970,1.487520 201.413940,1.975040 201.022888,2.737439 
z"/>
<path fill="#A7A5A0" opacity="1.000000" stroke="none" 
	d="
M53.857277,214.695801 
	C52.896873,213.750809 51.228069,212.423462 51.195740,211.057388 
	C50.740780,191.833221 50.371094,172.603867 50.361172,153.375549 
	C50.359566,150.265228 52.196724,147.153931 53.643837,144.125946 
	C54.436405,144.486923 54.769062,144.765045 55.101723,145.043182 
	C50.716351,161.790268 53.739193,178.850357 53.052467,195.753159 
	C52.802238,201.912140 53.593636,208.113449 53.857277,214.695801 
z"/>
<path fill="#ACAAA6" opacity="1.000000" stroke="none" 
	d="
M164.971710,43.054016 
	C149.946411,43.054016 134.921112,43.054016 119.895821,43.054016 
	C119.819977,43.351223 119.744133,43.648430 119.668289,43.945633 
	C123.589371,44.888317 127.510460,45.830997 133.061981,47.165661 
	C130.723465,48.979618 129.622299,49.833771 128.177124,50.774330 
	C128.193787,50.174843 128.554474,49.488953 129.223709,48.216305 
	C123.373451,47.576275 117.977234,46.985920 112.250443,46.359394 
	C112.250443,44.948864 112.250443,43.222603 112.250443,41.079857 
	C120.208633,41.079857 128.152023,41.079857 137.029816,41.010521 
	C143.644028,40.960663 149.323853,40.980145 155.003662,40.999630 
	C159.019638,40.988640 163.035629,40.977654 167.310272,41.286369 
	C166.703201,42.088718 165.837463,42.571365 164.971710,43.054016 
z"/>
<path fill="#AAA6A2" opacity="1.000000" stroke="none" 
	d="
M95.397964,173.839081 
	C100.723297,182.168930 105.606857,190.828140 111.500862,198.734039 
	C117.153709,206.316483 123.854691,213.117538 130.046844,220.617981 
	C124.990044,219.727859 124.360535,220.103348 119.130035,212.761887 
	C110.323357,200.400940 102.334465,187.457367 94.339561,174.350159 
	C94.917679,173.907333 95.157822,173.873215 95.397964,173.839081 
z"/>
<path fill="#C0BBB4" opacity="1.000000" stroke="none" 
	d="
M31.917379,192.917450 
	C31.626450,194.276901 31.335516,195.636353 30.680328,197.051468 
	C30.214331,195.955017 30.023823,194.802933 30.023678,193.650803 
	C30.018536,152.395691 30.031181,111.140572 30.110985,69.418320 
	C30.480844,69.015869 30.713060,69.177979 30.928833,70.124435 
	C30.984518,109.618309 30.975636,148.425262 31.032019,187.232132 
	C31.034773,189.127655 31.609171,191.022369 31.917379,192.917450 
z"/>
<path fill="#B3B1AC" opacity="1.000000" stroke="none" 
	d="
M215.127716,95.034561 
	C214.853912,88.419548 214.809067,81.784943 214.245270,75.194740 
	C213.615173,67.829788 209.170212,62.257679 204.705841,56.769321 
	C203.710770,55.546001 202.907547,54.166615 201.976318,52.501637 
	C211.557693,57.983681 216.894943,66.637604 217.960587,77.709793 
	C218.482788,83.135498 218.048431,88.653259 217.628204,94.575859 
	C216.515503,95.026428 215.821609,95.030495 215.127716,95.034561 
z"/>
<path fill="#94928E" opacity="1.000000" stroke="none" 
	d="
M53.044968,136.005585 
	C52.300556,135.859497 50.941330,135.800613 50.906342,135.553925 
	C50.535217,132.936920 50.163418,130.287933 50.189686,127.651733 
	C50.387939,107.754799 50.675793,87.858765 51.241257,67.723953 
	C52.077110,68.685059 52.607376,69.884659 53.137642,71.084251 
	C53.107922,71.830643 53.078197,72.577026 52.687531,73.988838 
	C52.241840,80.121475 52.157093,85.588699 52.060349,91.520905 
	C52.026318,105.123512 51.969173,118.261299 52.029381,131.398544 
	C52.036427,132.935745 52.690727,134.469971 53.044968,136.005585 
z"/>
<path fill="#ABA8A4" opacity="1.000000" stroke="none" 
	d="
M95.294891,173.494537 
	C95.157822,173.873215 94.917679,173.907333 94.315666,173.979202 
	C92.288475,172.186127 90.322205,170.547119 89.011391,168.490372 
	C84.081505,160.755066 79.312378,152.915222 74.606918,145.040512 
	C73.461914,143.124313 72.789337,140.925797 71.880447,138.482056 
	C74.336494,141.251801 77.071770,144.228363 79.235695,147.574417 
	C84.691635,156.010849 89.890137,164.613785 95.294891,173.494537 
z"/>
<path fill="#A9A49D" opacity="1.000000" stroke="none" 
	d="
M105.286308,83.093933 
	C102.434601,86.699127 99.880615,90.599442 96.664673,93.843575 
	C91.200256,99.355911 85.318901,104.454926 78.941101,109.863823 
	C77.788475,109.982140 77.307503,109.964279 76.826538,109.946411 
	C78.628517,108.082230 80.408859,106.196533 82.236328,104.357689 
	C89.249443,97.300873 96.277664,90.259079 103.953583,83.117447 
	C104.833374,83.046783 105.059837,83.070358 105.286308,83.093933 
z"/>
<path fill="#AAA6A2" opacity="1.000000" stroke="none" 
	d="
M220.024124,232.589539 
	C219.681763,233.163788 219.073044,233.488129 218.148285,233.947678 
	C210.727722,233.200272 206.367996,227.793579 201.426010,223.630051 
	C197.848480,220.616058 195.273392,216.412201 192.203827,211.946686 
	C192.263977,210.844040 192.371552,210.533661 192.479141,210.223267 
	C194.281784,212.084366 196.208145,213.842102 197.864899,215.825104 
	C203.890167,223.036880 210.492752,229.440964 220.024124,232.589539 
z"/>
<path fill="#8B8582" opacity="1.000000" stroke="none" 
	d="
M145.084839,224.221054 
	C153.221603,224.221054 161.358368,224.221054 169.495148,224.221054 
	C169.506943,224.048370 169.518738,223.875687 169.530533,223.703003 
	C167.393387,223.090378 165.256256,222.477753 163.017914,221.488220 
	C165.220566,221.075974 167.568085,220.758316 169.812714,221.105682 
	C171.281876,221.333054 172.601974,222.523468 173.988846,223.282547 
	C172.531448,224.510818 171.120041,226.731110 169.608963,226.801178 
	C161.714417,227.167160 153.794556,226.987228 145.425507,226.586411 
	C145.006607,225.524139 145.045715,224.872589 145.084839,224.221054 
z"/>
<path fill="#ABA8A4" opacity="1.000000" stroke="none" 
	d="
M142.157440,143.404205 
	C147.334229,141.902710 151.330978,144.646942 154.491440,148.212967 
	C157.750885,151.890701 160.244843,156.246872 162.798981,160.659790 
	C162.064621,161.010605 161.604965,161.007874 161.145309,161.005127 
	C159.420868,158.860245 157.401443,156.887238 156.031326,154.535904 
	C152.848892,149.074341 147.908432,146.032974 142.157440,143.404205 
z"/>
<path fill="#A9A9A0" opacity="1.000000" stroke="none" 
	d="
M185.988388,133.980759 
	C194.377258,129.693359 201.637558,124.086761 207.582184,116.025620 
	C208.835297,115.959892 209.379578,115.982246 209.923843,116.004593 
	C204.388809,123.979553 197.849075,130.842056 188.195114,134.998993 
	C187.004471,134.650818 186.496429,134.315796 185.988388,133.980759 
z"/>
<path fill="#B1ADA9" opacity="1.000000" stroke="none" 
	d="
M157.904541,220.452698 
	C154.924011,219.510483 151.202637,218.910217 148.859100,216.788223 
	C145.634460,213.868454 143.451920,209.797775 140.887665,205.434830 
	C140.983170,204.049301 141.013931,203.449097 141.044678,202.848907 
	C145.679382,209.518570 150.787827,215.729141 157.904541,220.452698 
z"/>
<path fill="#CDCCC6" opacity="1.000000" stroke="none" 
	d="
M53.387604,135.938248 
	C52.690727,134.469971 52.036427,132.935745 52.029381,131.398544 
	C51.969173,118.261299 52.026318,105.123512 52.250854,91.507423 
	C52.453354,91.028954 52.836510,91.025955 52.836510,91.025955 
	C52.836510,104.076401 52.836510,117.126839 52.836510,130.699799 
	C54.252739,130.022675 55.285618,129.528839 56.684940,129.116791 
	C55.944340,131.422684 54.837292,133.646790 53.387604,135.938248 
z"/>
<path fill="#ABA8A4" opacity="1.000000" stroke="none" 
	d="
M192.327713,169.874481 
	C190.221298,167.787506 188.297012,165.675064 186.698135,163.339828 
	C183.675766,158.925491 180.840408,154.383102 177.919937,149.537201 
	C178.741638,149.676849 179.872162,149.973999 180.352585,150.700867 
	C184.520233,157.006256 188.571106,163.388840 192.327713,169.874481 
z"/>
<path fill="#857F7A" opacity="1.000000" stroke="none" 
	d="
M59.920975,42.896866 
	C45.607632,42.975437 31.294291,43.054008 16.172432,43.121857 
	C11.152926,42.989014 14.245303,45.278061 14.231373,46.541573 
	C10.098475,47.862476 9.775431,45.839096 11.419840,42.318413 
	C26.344919,41.960754 40.650299,41.917351 55.337578,41.913597 
	C57.119972,42.267788 58.520473,42.582329 59.920975,42.896866 
z"/>
<path fill="#A29E98" opacity="1.000000" stroke="none" 
	d="
M149.762955,47.943726 
	C150.572952,47.278908 151.483627,45.947548 152.177399,46.052326 
	C159.156479,47.106380 166.104553,48.371773 173.042648,49.677013 
	C173.478409,49.758987 173.758163,50.670063 173.755707,51.589378 
	C172.893875,52.000961 172.386841,52.018574 171.879791,52.036186 
	C165.573257,50.695854 159.266708,49.355522 152.143509,48.013321 
	C150.805542,47.988880 150.284256,47.966301 149.762955,47.943726 
z"/>
<path fill="#A29E98" opacity="1.000000" stroke="none" 
	d="
M210.060852,115.669792 
	C209.379578,115.982246 208.835297,115.959892 207.879242,115.912491 
	C209.907715,109.169075 212.347977,102.450729 214.957977,95.383469 
	C215.821609,95.030495 216.515503,95.026428 217.556595,95.004929 
	C215.335144,101.769997 212.766510,108.552490 210.060852,115.669792 
z"/>
<path fill="#A9A49D" opacity="1.000000" stroke="none" 
	d="
M140.898682,202.532990 
	C141.013931,203.449097 140.983170,204.049301 140.937195,205.100494 
	C136.686874,198.570618 132.451767,191.589737 128.177399,184.224548 
	C129.704575,185.740112 131.443741,187.524948 132.801208,189.563934 
	C135.560806,193.709000 138.114258,197.991318 140.898682,202.532990 
z"/>
<path fill="#B1ADA9" opacity="1.000000" stroke="none" 
	d="
M55.415085,144.889832 
	C54.769062,144.765045 54.436405,144.486923 53.954811,143.911469 
	C56.610607,139.477005 59.252186,135.209549 62.361565,131.315659 
	C62.963551,130.561783 65.392670,131.266922 66.968018,131.680069 
	C60.932369,134.264832 58.744549,139.867523 55.415085,144.889832 
z"/>
<path fill="#A29E98" opacity="1.000000" stroke="none" 
	d="
M112.846977,162.521103 
	C108.452034,156.297760 104.057091,150.074417 99.774292,143.494400 
	C106.388382,147.194748 108.889824,154.318039 112.965240,160.979034 
	C112.915024,161.997406 112.880997,162.259247 112.846977,162.521103 
z"/>
<path fill="#AAA6A2" opacity="1.000000" stroke="none" 
	d="
M105.595856,82.990814 
	C105.059837,83.070358 104.833374,83.046783 104.266304,82.998383 
	C108.052650,77.737190 112.179611,72.500824 116.615692,67.128098 
	C117.038391,67.708687 117.515503,68.715050 117.210205,69.098557 
	C113.508797,73.748169 109.692108,78.306000 105.595856,82.990814 
z"/>
<path fill="#A9A9A0" opacity="1.000000" stroke="none" 
	d="
M87.889816,112.782990 
	C93.012947,109.393074 98.136070,106.003151 103.537781,102.747314 
	C98.811020,106.594002 93.805656,110.306610 88.390884,113.734772 
	C87.950935,113.227882 87.920380,113.005440 87.889816,112.782990 
z"/>
<path fill="#A9A49D" opacity="1.000000" stroke="none" 
	d="
M237.008713,227.526947 
	C235.319138,227.448334 233.216202,227.484772 231.997711,226.464706 
	C228.420700,223.470200 225.195206,220.055786 222.112244,216.417297 
	C222.643143,216.002319 222.893875,215.975845 223.144592,215.949356 
	C223.746857,216.116760 224.501633,216.108612 224.927719,216.478790 
	C228.983459,220.002335 232.983459,223.590012 237.008713,227.526947 
z"/>
<path fill="#ACAAA6" opacity="1.000000" stroke="none" 
	d="
M185.639542,134.094604 
	C186.496429,134.315796 187.004471,134.650818 187.830078,135.020355 
	C183.073837,137.046600 178.000046,139.038330 172.265839,140.944641 
	C170.741531,140.905899 169.877640,140.952606 169.013733,140.999313 
	C171.244736,139.720718 173.370804,138.182465 175.732758,137.227966 
	C178.821136,135.979919 182.096039,135.193497 185.639542,134.094604 
z"/>
<path fill="#B1ADA9" opacity="1.000000" stroke="none" 
	d="
M172.054688,52.362137 
	C172.386841,52.018574 172.893875,52.000961 173.782501,51.969131 
	C179.953873,52.216618 186.014557,57.019878 187.614044,63.126236 
	C184.874283,61.256790 182.583908,58.914639 179.961197,57.036617 
	C177.571411,55.325390 174.821030,54.117710 172.054688,52.362137 
z"/>
<path fill="#94928E" opacity="1.000000" stroke="none" 
	d="
M130.959854,138.043427 
	C130.840408,139.167786 130.655151,139.903107 130.460587,140.675308 
	C133.925354,141.239563 137.281158,141.786087 140.819794,142.677368 
	C137.396957,143.519211 133.793045,144.267395 130.184097,144.292679 
	C129.496918,144.297485 128.458649,141.486084 128.257401,139.888962 
	C128.178741,139.264755 129.959915,138.406219 130.959854,138.043427 
z"/>
<path fill="#B3B1AC" opacity="1.000000" stroke="none" 
	d="
M54.955681,41.873947 
	C40.650299,41.917351 26.344919,41.960754 11.579365,41.977585 
	C12.269148,41.639671 13.417900,41.062824 14.569248,41.057594 
	C27.732109,40.997807 40.895363,41.025063 54.519508,41.274086 
	C54.980511,41.519077 54.955681,41.873947 54.955681,41.873947 
z"/>
<path fill="#938F8A" opacity="1.000000" stroke="none" 
	d="
M194.997726,79.000595 
	C196.242096,85.747543 197.141281,92.476593 193.561127,99.050751 
	C193.090561,92.712852 193.020264,86.318420 193.244812,79.494400 
	C194.025696,79.043419 194.511703,79.022011 194.997726,79.000595 
z"/>
<path fill="#B3B1AC" opacity="1.000000" stroke="none" 
	d="
M53.482506,70.825554 
	C52.607376,69.884659 52.077110,68.685059 51.293026,67.259781 
	C51.401466,63.097225 51.763733,59.160362 52.501007,55.085464 
	C53.193134,60.153908 53.510250,65.360382 53.482506,70.825554 
z"/>
<path fill="#ABA8A4" opacity="1.000000" stroke="none" 
	d="
M91.407104,133.150436 
	C88.486931,129.399460 85.566757,125.648476 83.006500,121.484390 
	C83.966080,121.028847 84.565727,120.986427 85.165382,120.944000 
	C88.120857,125.046394 91.076340,129.148788 93.747765,133.496643 
	C92.778175,133.544907 92.092644,133.347672 91.407104,133.150436 
z"/>
<path fill="#A29E98" opacity="1.000000" stroke="none" 
	d="
M76.533203,110.096741 
	C77.307503,109.964279 77.788475,109.982140 78.630424,109.999054 
	C74.204590,113.988022 69.417778,117.977959 64.259293,121.931778 
	C68.005035,118.012794 72.122452,114.129936 76.533203,110.096741 
z"/>
<path fill="#A7A39F" opacity="1.000000" stroke="none" 
	d="
M195.005096,78.602676 
	C194.511703,79.022011 194.025696,79.043419 193.174835,79.075989 
	C190.904343,74.419350 188.998703,69.751556 187.197266,64.792633 
	C188.181793,64.598297 189.682281,64.436119 189.847412,64.831566 
	C191.688095,69.239601 193.322479,73.733795 195.005096,78.602676 
z"/>
<path fill="#AAA6A2" opacity="1.000000" stroke="none" 
	d="
M169.877228,174.349915 
	C172.695007,178.434586 175.410492,182.853302 178.047577,187.656067 
	C174.989105,183.991837 171.997681,179.951691 169.074234,175.862991 
	C168.967300,175.713425 169.526291,175.087753 169.877228,174.349915 
z"/>
<path fill="#A9A49D" opacity="1.000000" stroke="none" 
	d="
M55.337578,41.913597 
	C54.955681,41.873947 54.980511,41.519077 54.982941,41.341225 
	C59.213108,40.836437 63.444389,40.274910 67.666229,40.338619 
	C68.798119,40.355698 70.550392,42.109146 70.878387,43.363453 
	C71.503365,45.753448 70.192513,46.972290 67.374077,45.666718 
	C67.067734,44.537216 66.983086,43.822037 66.898438,43.106857 
	C64.862274,43.083508 62.826107,43.060158 60.355457,42.966839 
	C58.520473,42.582329 57.119972,42.267788 55.337578,41.913597 
z"/>
<path fill="#A9A49D" opacity="1.000000" stroke="none" 
	d="
M149.495880,48.136837 
	C150.284256,47.966301 150.805542,47.988880 151.717224,48.024261 
	C149.340622,52.364552 146.573639,56.692036 143.442429,61.059219 
	C145.128403,56.842602 147.178604,52.586277 149.495880,48.136837 
z"/>
<path fill="#A7A39F" opacity="1.000000" stroke="none" 
	d="
M112.982742,162.805359 
	C112.880997,162.259247 112.915024,161.997406 112.983963,161.341034 
	C113.754494,161.215164 114.830956,161.262573 115.171722,161.787537 
	C117.858757,165.927124 120.405327,170.157883 122.910118,174.724121 
	C119.589577,171.088303 116.354042,167.088959 112.982742,162.805359 
z"/>
<path fill="#ACAAA6" opacity="1.000000" stroke="none" 
	d="
M223.081482,215.581360 
	C222.893875,215.975845 222.643143,216.002319 222.015808,216.080429 
	C218.800110,211.962753 215.961044,207.793427 213.107086,203.253662 
	C216.400925,206.993271 219.709656,211.103317 223.081482,215.581360 
z"/>
<path fill="#B1ADA9" opacity="1.000000" stroke="none" 
	d="
M161.065369,161.365234 
	C161.604965,161.007874 162.064621,161.010605 162.870972,161.012390 
	C165.505646,165.093719 167.793640,169.175995 170.037048,173.633698 
	C169.127914,173.652969 167.865692,173.544235 167.464569,172.899658 
	C165.190857,169.245834 163.123215,165.463760 161.065369,161.365234 
z"/>
<path fill="#D6D9D4" opacity="1.000000" stroke="none" 
	d="
M154.993469,40.559181 
	C149.323853,40.980145 143.644028,40.960663 137.499451,40.973801 
	C137.088425,40.521946 137.151154,39.612297 137.194687,39.613213 
	C143.125122,39.738449 149.054184,39.930153 154.993469,40.559181 
z"/>
<path fill="#B3B1AC" opacity="1.000000" stroke="none" 
	d="
M36.733944,226.811386 
	C37.290386,226.122513 38.181156,225.091949 39.047974,225.111725 
	C44.017353,225.225052 48.981037,225.587769 54.038536,226.263184 
	C48.439350,226.758621 42.748283,226.856720 36.733944,226.811386 
z"/>
<path fill="#B3B1AC" opacity="1.000000" stroke="none" 
	d="
M85.018082,120.630272 
	C84.565727,120.986427 83.966080,121.028847 82.914604,121.136856 
	C79.448654,119.620415 78.867661,117.890938 82.145187,115.930786 
	C83.825638,114.925774 85.508072,113.924072 87.539719,112.851929 
	C87.920380,113.005440 87.950935,113.227882 88.016449,113.785324 
	C87.192032,115.145607 86.158432,116.075745 85.529648,117.226997 
	C85.045952,118.112617 85.071609,119.276428 85.018082,120.630272 
z"/>
<path fill="#A29E98" opacity="1.000000" stroke="none" 
	d="
M183.912003,44.713497 
	C180.590378,44.762753 177.191269,44.430332 173.374359,43.772774 
	C172.964493,43.053646 172.972397,42.659653 172.980316,42.265659 
	C176.681686,42.516735 180.864517,40.238586 183.912003,44.713497 
z"/>
<path fill="#94928E" opacity="1.000000" stroke="none" 
	d="
M12.695545,221.119263 
	C12.274990,224.213989 13.563126,225.060913 16.615662,225.039734 
	C21.984842,225.002502 27.357189,225.421936 32.772980,226.194122 
	C31.499966,226.749451 30.182178,226.760803 28.205860,226.405426 
	C23.178833,226.051010 18.810337,226.063309 14.441843,226.075592 
	C13.946712,226.257843 13.451581,226.440094 12.406445,226.322830 
	C11.601200,226.023071 11.345961,226.022812 11.090720,226.022537 
	C11.498789,224.391022 11.906858,222.759491 12.695545,221.119263 
z"/>
<path fill="#E6E5E4" opacity="1.000000" stroke="none" 
	d="
M29.659412,206.083298 
	C30.587793,207.836044 32.236420,210.206253 31.617285,211.412155 
	C30.710777,213.177795 28.179358,214.109177 26.145912,215.130524 
	C26.279976,214.414841 26.608541,213.964737 27.404602,213.171326 
	C28.243853,211.204361 28.615608,209.580704 28.987364,207.957031 
	C29.113497,207.364761 29.239626,206.772476 29.659412,206.083298 
z"/>
<path fill="#ACAAA6" opacity="1.000000" stroke="none" 
	d="
M144.688538,224.111725 
	C145.045715,224.872589 145.006607,225.524139 144.960556,226.502579 
	C141.963654,225.854904 138.973694,224.880310 135.979675,223.519257 
	C138.747818,223.422653 141.520020,223.712540 144.688538,224.111725 
z"/>
<path fill="#AAA6A2" opacity="1.000000" stroke="none" 
	d="
M91.514542,133.500763 
	C92.092644,133.347672 92.778175,133.544907 93.804474,133.854324 
	C96.083038,136.774658 98.020844,139.582809 99.893814,142.753021 
	C97.093315,140.027084 94.357643,136.939087 91.514542,133.500763 
z"/>
<path fill="#E6E5E4" opacity="1.000000" stroke="none" 
	d="
M228.086304,237.409943 
	C233.604248,236.702286 239.351318,236.374252 245.525696,236.020355 
	C245.180008,236.674500 244.418152,237.926437 243.632233,237.941711 
	C238.529541,238.040955 233.421616,237.871231 228.086304,237.409943 
z"/>
<path fill="#ACAAA6" opacity="1.000000" stroke="none" 
	d="
M192.520325,209.903122 
	C192.371552,210.533661 192.263977,210.844040 192.056213,211.636871 
	C189.976013,208.942459 187.996017,205.765610 186.153549,202.232147 
	C188.381226,204.444687 190.471375,207.013840 192.520325,209.903122 
z"/>
<path fill="#B3B1AC" opacity="1.000000" stroke="none" 
	d="
M52.923416,90.563843 
	C52.836510,91.025955 52.453354,91.028954 52.262848,91.042435 
	C52.157093,85.588699 52.241840,80.121475 52.606300,74.353516 
	C52.927448,79.402428 52.968887,84.752075 52.923416,90.563843 
z"/>
<path fill="#CDCCC6" opacity="1.000000" stroke="none" 
	d="
M168.652603,141.022827 
	C169.877640,140.952606 170.741531,140.905899 171.867813,140.950607 
	C171.479584,141.488129 170.828979,141.934235 170.095505,142.688004 
	C168.090820,142.738815 166.169037,142.481949 164.247238,142.225082 
	C164.287521,141.832169 164.327805,141.439255 164.368088,141.046341 
	C165.675888,141.046341 166.983673,141.046341 168.652603,141.022827 
z"/>
<path fill="#B3B1AC" opacity="1.000000" stroke="none" 
	d="
M14.701792,226.462189 
	C18.810337,226.063309 23.178833,226.051010 28.052692,226.057983 
	C24.025953,226.334412 19.493847,226.591599 14.701792,226.462189 
z"/>
<path fill="#FDFCFC" opacity="1.000000" stroke="none" 
	d="
M28.582607,207.989914 
	C28.615608,209.580704 28.243853,211.204361 27.512930,212.904877 
	C27.495127,211.328751 27.836491,209.675781 28.582607,207.989914 
z"/>
<path fill="#A29E98" opacity="1.000000" stroke="none" 
	d="
M165.286835,43.201622 
	C165.837463,42.571365 166.703201,42.088718 167.764679,41.367439 
	C168.419373,41.098263 168.878357,41.067715 169.646240,41.401398 
	C169.637634,42.488464 169.320114,43.211300 169.002579,43.934135 
	C167.869034,43.739170 166.735489,43.544205 165.286835,43.201622 
z"/>
<path fill="#E6E5E4" opacity="1.000000" stroke="none" 
	d="
M14.474642,46.547913 
	C14.245303,45.278061 11.152926,42.989014 15.710838,43.177673 
	C16.044676,43.970882 16.031590,44.697552 16.028297,45.787754 
	C15.598030,46.285610 15.157970,46.419930 14.474642,46.547913 
z"/>
<path fill="#E6E5E4" opacity="1.000000" stroke="none" 
	d="
M66.681694,43.348457 
	C66.983086,43.822037 67.067734,44.537216 67.052612,45.519180 
	C65.889824,45.837177 64.826797,45.888393 63.370075,45.868378 
	C64.139236,45.061447 65.302094,44.325756 66.681694,43.348457 
z"/>
<path fill="#ACAAA6" opacity="1.000000" stroke="none" 
	d="
M169.395752,44.015221 
	C169.320114,43.211300 169.637634,42.488464 169.985352,41.468933 
	C170.791107,41.489243 171.566666,41.806244 172.661285,42.194450 
	C172.972397,42.659653 172.964493,43.053646 172.974747,43.742805 
	C171.924927,44.057419 170.856918,44.076862 169.395752,44.015221 
z"/>
<path fill="#B1ADA9" opacity="1.000000" stroke="none" 
	d="
M22.858109,219.880035 
	C22.892527,219.711212 22.926947,219.542374 23.028912,219.124054 
	C23.096455,218.874573 23.508343,218.944733 23.715925,218.968231 
	C24.738646,218.683014 25.553782,218.374283 26.368917,218.065536 
	C26.571384,218.308517 26.773851,218.551483 26.976318,218.794464 
	C26.202654,219.508652 25.428988,220.222855 24.210629,220.715179 
	C23.463326,220.288879 23.160717,220.084457 22.858109,219.880035 
z"/>
<path fill="#857F7A" opacity="1.000000" stroke="none" 
	d="
M17.775764,46.665020 
	C18.402765,46.346142 19.058838,46.309563 19.901058,46.566406 
	C19.326418,46.888992 18.565628,46.918156 17.775764,46.665020 
z"/>
<path fill="#B3B1AC" opacity="1.000000" stroke="none" 
	d="
M11.143047,226.366425 
	C11.345961,226.022812 11.601200,226.023071 12.238319,226.071289 
	C12.145257,226.316284 11.670316,226.513306 11.143047,226.366425 
z"/>
<path fill="#B3B1AC" opacity="1.000000" stroke="none" 
	d="
M68.195892,226.799683 
	C67.850594,226.367325 67.967003,226.117966 68.482346,225.933456 
	C68.626289,226.242249 68.551727,226.570389 68.195892,226.799683 
z"/>
<path fill="#938F8A" opacity="1.000000" stroke="none" 
	d="
M150.675919,137.045258 
	C150.742233,137.293060 150.493774,137.599258 150.043564,137.691803 
	C150.014908,137.353302 150.188034,137.228485 150.675919,137.045258 
z"/>
<path fill="#938F8A" opacity="1.000000" stroke="none" 
	d="
M31.965879,192.457443 
	C31.609171,191.022369 31.034773,189.127655 31.032019,187.232132 
	C30.975636,148.425262 30.984518,109.618309 30.996498,70.330658 
	C31.354544,71.377144 31.993254,72.903976 31.995083,74.431572 
	C32.041988,113.620140 32.022400,152.808792 31.965879,192.457443 
z"/>
<path fill="#938F8A" opacity="1.000000" stroke="none" 
	d="
M22.246944,221.289093 
	C21.349705,221.545441 20.452467,221.801788 19.555229,222.058136 
	C19.492798,221.841431 19.430367,221.624710 19.367935,221.408005 
	C19.896189,221.168686 20.424442,220.929382 21.420647,220.792404 
	C22.008045,221.026169 22.127495,221.157623 22.246944,221.289093 
z"/>
<path fill="#938F8A" opacity="1.000000" stroke="none" 
	d="
M22.615982,219.932907 
	C23.160717,220.084457 23.463326,220.288879 23.881386,220.743576 
	C23.610535,221.077393 23.224232,221.160934 22.542437,221.266785 
	C22.127495,221.157623 22.008045,221.026169 21.714142,220.688461 
	C21.755270,220.211777 22.033325,220.046295 22.615982,219.932907 
z"/>
</svg>